$$$$$ FIRST ON NET IN HD HINDI $$$$$

Hindi Audio Muxing My Best Friend Bharat Saini
 
http://www.imdb.com/title/tt0120787/
 
http://en.wikipedia.org/wiki/A_Perfect_Murder


1. http://img690.imageshack.us/img690/739/amitanil.jpg

2.
 
A Perfect Murder (1998) BRRip 720p Dual Audio Hindi - English By~ Amit_Anil
 
http://img846.imageshack.us/img846/1451/aperfectmurder1.jpg     
 
http://img197.imageshack.us/img197/7228/apm.jpg


3. http://img10.imageshack.us/img10/8251/infocd.gif

4. 
A Perfect Murder (1998) BRRip 720p Dual Audio Hindi - English By~ Amit_Anil

File size                                : 868 MiB
Duration                                 : 1h 47mn
Overall bit rate                         : 1 130 Kbps

Video
Bit rate                                 : 851 Kbps
Video Resolution                         : 1280 x 720
Width                                    : 1280 pixels
Height                                   : 720 pixels
Display aspect ratio                     : 16:9
Frame rate                               : 23.976 fps
Stream size                              : 654 MiB (75%)

Audio #1
Channel(s)                               : 2 channels
Stream size                              : 98.4 MiB (11%)
Title                                    : Hindi _By~ Amit_Anil

Audio #2
Channel(s)                               : 2 channels
Stream size                              : 98.4 MiB (11%)
Title                                    : English

subtitle ----------- English,French,Spanish,Portuguese,Italian,German,Dutch,Japanese


5.
 
http://img535.imageshack.us/img535/9007/snapshot20130404224542.jpg
 
http://img836.imageshack.us/img836/5176/snapshot20130404224431.jpg
 
http://img813.imageshack.us/img813/8656/snapshot20130404225219.jpg
 
http://img577.imageshack.us/img577/8932/snapshot20130404224703.jpg


SEED PLEASE

Keep Seeding After Downloading...
 
http://torrentz.in/anyA?f=amit+anil